<svg width="20" height="20" viewBox="0 0 20 20" fill="none" xmlns="http://www.w3.org/2000/svg">
<path d="M10 0.222229C8.06615 0.222229 6.17572 0.795686 4.56777 1.87008C2.95982 2.94448 1.70658 4.47156 0.966522 6.25821C0.226466 8.04487 0.0328329 10.0109 0.410111 11.9076C0.787388 13.8043 1.71863 15.5465 3.08608 16.9139C4.45353 18.2814 6.19576 19.2126 8.09246 19.5899C9.98917 19.9672 11.9552 19.7736 13.7418 19.0335C15.5285 18.2934 17.0555 17.0402 18.1299 15.4323C19.2043 13.8243 19.7778 11.9339 19.7778 10C19.7778 7.40678 18.7476 4.91976 16.9139 3.08607C15.0803 1.25239 12.5932 0.222229 10 0.222229V0.222229ZM16.3861 6.71834L8.35612 14.7422L3.6139 10C3.45182 9.83793 3.36077 9.61811 3.36077 9.3889C3.36077 9.15969 3.45182 8.93986 3.6139 8.77779C3.77598 8.61571 3.9958 8.52466 4.22501 8.52466C4.45422 8.52466 4.67405 8.61571 4.83612 8.77779L8.36835 12.31L15.1761 5.50834C15.2564 5.42809 15.3516 5.36443 15.4565 5.321C15.5614 5.27756 15.6737 5.25521 15.7872 5.25521C15.9007 5.25521 16.0131 5.27756 16.118 5.321C16.2228 5.36443 16.3181 5.42809 16.3983 5.50834C16.4786 5.58859 16.5423 5.68387 16.5857 5.78872C16.6291 5.89358 16.6515 6.00596 16.6515 6.11945C16.6515 6.23295 16.6291 6.34533 16.5857 6.45018C16.5423 6.55504 16.4786 6.65031 16.3983 6.73056L16.3861 6.71834Z" fill="#0FA958"/>
</svg>
